<svg id="Layer_1" data-name="Layer 1" xmlns="http://www.w3.org/2000/svg" viewBox="0 0 227.27 255.27"><defs><style>.cls-1{fill:#f9ead4;}</style></defs><g id="Path_5386" data-name="Path 5386"><path id="Path_5386-2" data-name="Path 5386" class="cls-1" d="M181.4,164.58c-1.78-4.05-1.31-6.67,1.9-10.75a29.37,29.37,0,0,0,6.41-16.74,7.62,7.62,0,0,1,1.11-3.3l10.73,20Z"/></g><g id="Path_5386-3" data-name="Path 5386"><path id="Path_5386-4" data-name="Path 5386" class="cls-1" d="M210.92,122.93c1.78,4,1.31,6.67-1.9,10.76a29.31,29.31,0,0,0-6.41,16.73,7.62,7.62,0,0,1-1.11,3.3l-10.73-20Z"/></g><g id="Path_5386-5" data-name="Path 5386"><path id="Path_5386-6" data-name="Path 5386" class="cls-1" d="M124.93,172.19c2.53,3.62,5,4.58,10.18,3.94a29.36,29.36,0,0,1,17.63,3.18,7.45,7.45,0,0,0,3.4.76l-11.52-19.51Z"/></g><g id="Path_5386-7" data-name="Path 5386"><path id="Path_5386-8" data-name="Path 5386" class="cls-1" d="M175.72,168.46c-2.54-3.62-5-4.58-10.18-4a29.4,29.4,0,0,1-17.64-3.18,7.39,7.39,0,0,0-3.4-.76L156,180.08Z"/></g><polygon class="cls-1" points="93.54 15.01 144.41 147.6 180.41 127.35 93.54 15.01"/><polygon class="cls-1" points="181.7 171.96 180.31 127.33 144.3 147.55 181.7 171.96"/><rect class="cls-1" x="180.1" y="158.01" width="7.68" height="36.06" transform="translate(-62.47 111.97) rotate(-29.17)"/><circle class="cls-1" cx="192.2" cy="190.77" r="5.99"/><g id="Path_5386-9" data-name="Path 5386"><path id="Path_5386-10" data-name="Path 5386" class="cls-1" d="M45.87,165.78c1.78-4,1.31-6.66-1.9-10.75a29.34,29.34,0,0,1-6.41-16.73A7.61,7.61,0,0,0,36.45,135L25.72,155Z"/></g><g id="Path_5386-11" data-name="Path 5386"><path id="Path_5386-12" data-name="Path 5386" class="cls-1" d="M16.35,124.14c-1.78,4-1.31,6.66,1.9,10.75a29.34,29.34,0,0,1,6.41,16.73,7.66,7.66,0,0,0,1.11,3.31L36.5,135Z"/></g><g id="Path_5386-13" data-name="Path 5386"><path id="Path_5386-14" data-name="Path 5386" class="cls-1" d="M102.34,173.39c-2.54,3.62-5,4.58-10.18,4a29.27,29.27,0,0,0-17.63,3.17,7.59,7.59,0,0,1-3.4.77l11.52-19.52Z"/></g><g id="Path_5386-15" data-name="Path 5386"><path id="Path_5386-16" data-name="Path 5386" class="cls-1" d="M51.55,169.66c2.54-3.62,5-4.58,10.18-3.95a29.4,29.4,0,0,0,17.64-3.18,7.65,7.65,0,0,1,3.4-.76L71.25,181.29Z"/></g><polygon class="cls-1" points="133.73 16.21 82.86 148.8 46.86 128.55 133.73 16.21"/><polygon class="cls-1" points="45.57 173.16 46.96 128.53 82.97 148.75 45.57 173.16"/><rect class="cls-1" x="39.49" y="159.22" width="7.68" height="36.06" transform="translate(-5.21 353.13) rotate(-150.83)"/><circle class="cls-1" cx="35.07" cy="191.97" r="5.99"/><path class="cls-1" d="M92.88,153.12a4.21,4.21,0,1,0,4.21,4.21A4.21,4.21,0,0,0,92.88,153.12Zm.25,3.11a5.29,5.29,0,0,0-2.47,2.13,1.27,1.27,0,0,1-.46.43v-4.11h4.16A1.65,1.65,0,0,1,93.13,156.23Z"/><path class="cls-1" d="M109.84,153.62a4.21,4.21,0,1,0,4.21,4.2A4.21,4.21,0,0,0,109.84,153.62Zm.7,3.1a5.38,5.38,0,0,0-2.47,2.12,1.48,1.48,0,0,1-.46.44v-4.11h4.15C111.7,156,111.4,156.34,110.54,156.72Z"/><path class="cls-1" d="M34.79,226.35a1.33,1.33,0,0,0-.49-1,2.06,2.06,0,0,0-1.25-.34,2.46,2.46,0,0,0-.88.14,1.17,1.17,0,0,0-.54.38,1,1,0,0,0-.18.55.83.83,0,0,0,.1.45,1.13,1.13,0,0,0,.34.35,2.38,2.38,0,0,0,.53.25,4.94,4.94,0,0,0,.7.2l1,.22a6.35,6.35,0,0,1,1.49.49,3.78,3.78,0,0,1,1.09.73,2.69,2.69,0,0,1,.67,1,3.43,3.43,0,0,1-.31,3.08A3.42,3.42,0,0,1,35.48,234a7.39,7.39,0,0,1-4.91,0,3.47,3.47,0,0,1-1.65-1.3,4,4,0,0,1-.61-2.2H31a1.76,1.76,0,0,0,.29.92A1.55,1.55,0,0,0,32,232a3.07,3.07,0,0,0,2,0,1.35,1.35,0,0,0,.6-.42,1,1,0,0,0,.22-.61.88.88,0,0,0-.2-.55,1.57,1.57,0,0,0-.6-.4,6.29,6.29,0,0,0-1-.31l-1.19-.28a5.17,5.17,0,0,1-2.33-1.1,2.59,2.59,0,0,1-.84-2.05,3,3,0,0,1,.56-1.85,3.73,3.73,0,0,1,1.59-1.23,5.59,5.59,0,0,1,2.3-.45,5.46,5.46,0,0,1,2.3.45,3.6,3.6,0,0,1,1.51,1.25,3.37,3.37,0,0,1,.55,1.87Z"/><path class="cls-1" d="M39,234.31V222.94h7.92v2.23H41.71v2.33h4.78v2.24H41.71v2.33h5.18v2.24Z"/><path class="cls-1" d="M58.93,227.06H56.16a2.48,2.48,0,0,0-.23-.77,1.95,1.95,0,0,0-1.13-1,2.53,2.53,0,0,0-.85-.13,2.47,2.47,0,0,0-1.42.41,2.53,2.53,0,0,0-.92,1.17,4.86,4.86,0,0,0-.32,1.85,4.79,4.79,0,0,0,.33,1.9,2.47,2.47,0,0,0,.91,1.15,2.58,2.58,0,0,0,1.41.38,3,3,0,0,0,.82-.11,2,2,0,0,0,.67-.35,1.93,1.93,0,0,0,.47-.55,2.34,2.34,0,0,0,.26-.73l2.77,0a4.24,4.24,0,0,1-.43,1.48,4.94,4.94,0,0,1-1,1.34,4.79,4.79,0,0,1-1.54,1,5.85,5.85,0,0,1-2.08.35,5.59,5.59,0,0,1-2.76-.68,4.83,4.83,0,0,1-1.92-2,6.61,6.61,0,0,1-.71-3.18,6.5,6.5,0,0,1,.72-3.18,4.85,4.85,0,0,1,1.93-2,5.59,5.59,0,0,1,2.74-.68,6.17,6.17,0,0,1,1.91.29,4.76,4.76,0,0,1,1.54.83,4.31,4.31,0,0,1,1.09,1.34A5.15,5.15,0,0,1,58.93,227.06Z"/><path class="cls-1" d="M67.37,222.94h2.74v7.33a3.87,3.87,0,0,1-2.29,3.67,6.48,6.48,0,0,1-5,0,3.91,3.91,0,0,1-2.29-3.67v-7.33h2.75V230a2.15,2.15,0,0,0,.26,1.05,1.75,1.75,0,0,0,.73.72,2.37,2.37,0,0,0,2.16,0,1.78,1.78,0,0,0,.72-.72,2,2,0,0,0,.26-1.05Z"/><path class="cls-1" d="M71.83,234.31V222.94h4.7a4.9,4.9,0,0,1,2.21.46,3.25,3.25,0,0,1,1.43,1.31,3.82,3.82,0,0,1,.51,2,3.75,3.75,0,0,1-.52,2A3.2,3.2,0,0,1,78.7,230a5.41,5.41,0,0,1-2.25.43h-3v-2.16h2.46a3.11,3.11,0,0,0,1-.16,1.28,1.28,0,0,0,.63-.5,1.54,1.54,0,0,0,.22-.87,1.56,1.56,0,0,0-.22-.87,1.24,1.24,0,0,0-.64-.52,2.6,2.6,0,0,0-1-.18H74.58v9.16Zm6.41-5.2,2.83,5.2h-3l-2.78-5.2Z"/><path class="cls-1" d="M84.93,222.94v11.37H82.18V222.94Z"/><path class="cls-1" d="M86.28,225.17v-2.23h9.61v2.23H92.44v9.14H89.73v-9.14Z"/><path class="cls-1" d="M96.67,222.94h3.07l2.4,4.75h.1l2.4-4.75h3.07l-4.15,7.57v3.8h-2.73v-3.8Z"/><path class="cls-1" d="M122.55,227.06h-2.78a2.24,2.24,0,0,0-.22-.77,1.95,1.95,0,0,0-1.13-1,2.53,2.53,0,0,0-.85-.13,2.47,2.47,0,0,0-1.42.41,2.53,2.53,0,0,0-.92,1.17,4.86,4.86,0,0,0-.32,1.85,4.79,4.79,0,0,0,.33,1.9,2.47,2.47,0,0,0,.91,1.15,2.57,2.57,0,0,0,1.4.38,3,3,0,0,0,.83-.11,2.08,2.08,0,0,0,.66-.35,1.82,1.82,0,0,0,.48-.55,2.1,2.1,0,0,0,.25-.73l2.78,0a4.06,4.06,0,0,1-.44,1.48,4.7,4.7,0,0,1-1,1.34,4.79,4.79,0,0,1-1.54,1,5.85,5.85,0,0,1-2.08.35,5.59,5.59,0,0,1-2.76-.68,4.79,4.79,0,0,1-1.93-2,7.52,7.52,0,0,1,0-6.36,4.93,4.93,0,0,1,1.94-2,5.59,5.59,0,0,1,2.74-.68,6.17,6.17,0,0,1,1.91.29,4.76,4.76,0,0,1,1.54.83,4.15,4.15,0,0,1,1.08,1.34A5,5,0,0,1,122.55,227.06Z"/><path class="cls-1" d="M124.11,234.31V222.94h2.75v4.56h4.48v-4.56h2.74v11.37h-2.74v-4.57h-4.48v4.57Z"/><path class="cls-1" d="M138.26,234.31h-2.95l3.83-11.37h3.66l3.84,11.37h-2.95L141,225.8h-.09Zm-.39-4.48H144v2.09h-6.17Z"/><path class="cls-1" d="M147.86,222.94h3.41l2.88,7h.14l2.88-7h3.41v11.37H157.9v-7h-.09l-2.73,6.91h-1.71l-2.74-6.95h-.09v7h-2.68Z"/><path class="cls-1" d="M162.29,234.31V222.94H167a4.54,4.54,0,0,1,2.21.5,3.46,3.46,0,0,1,1.43,1.38,4,4,0,0,1,.51,2.05,3.94,3.94,0,0,1-.52,2.06,3.43,3.43,0,0,1-1.46,1.36,4.91,4.91,0,0,1-2.25.49H164v-2.17h2.39a2.19,2.19,0,0,0,1-.22,1.41,1.41,0,0,0,.63-.6,1.82,1.82,0,0,0,.22-.92,1.78,1.78,0,0,0-.22-.91,1.38,1.38,0,0,0-.64-.6,2.28,2.28,0,0,0-1-.21H165v9.16Z"/><path class="cls-1" d="M175.23,222.94v11.37h-2.75V222.94Z"/><path class="cls-1" d="M187.68,228.62a6.5,6.5,0,0,1-.72,3.18,4.89,4.89,0,0,1-2,2,5.92,5.92,0,0,1-5.51,0,5,5,0,0,1-1.95-2,6.43,6.43,0,0,1-.72-3.17,6.5,6.5,0,0,1,.72-3.18,4.89,4.89,0,0,1,1.95-2,5.58,5.58,0,0,1,2.75-.68,5.64,5.64,0,0,1,2.76.68,4.89,4.89,0,0,1,2,2A6.5,6.5,0,0,1,187.68,228.62Zm-2.81,0a4.91,4.91,0,0,0-.31-1.87,2.35,2.35,0,0,0-2.31-1.56,2.4,2.4,0,0,0-1.4.4,2.43,2.43,0,0,0-.9,1.16,4.9,4.9,0,0,0-.32,1.87,5,5,0,0,0,.32,1.88,2.46,2.46,0,0,0,4.61,0A5,5,0,0,0,184.87,228.62Z"/><path class="cls-1" d="M199,222.94v11.37h-2.33l-4.52-6.57H192v6.57h-2.75V222.94h2.36l4.48,6.55h.09v-6.55Z"/></svg>