<?xml version="1.0" encoding="UTF-8" standalone="no"?><!DOCTYPE svg PUBLIC "-//W3C//DTD SVG 1.1//EN" "http://www.w3.org/Graphics/SVG/1.1/DTD/svg11.dtd"><svg width="100%" height="100%" viewBox="0 0 947 1064" version="1.1" xmlns="http://www.w3.org/2000/svg" xmlns:xlink="http://www.w3.org/1999/xlink" xml:space="preserve" xmlns:serif="http://www.serif.com/" style="fill-rule:evenodd;clip-rule:evenodd;stroke-linejoin:round;stroke-miterlimit:2;"><g id="Path_5386"><path id="Path_5386-2" d="M755.833,685.75c-7.416,-16.875 -5.458,-27.792 7.917,-44.792c15.951,-19.895 25.292,-44.288 26.708,-69.75c0.46,-4.878 2.043,-9.585 4.625,-13.75l44.709,83.334l-83.959,44.958Z" style="fill:#f9ead4;fill-rule:nonzero;"/></g><g id="Path_5386-3"><path id="Path_5386-4" d="M878.833,512.208c7.417,16.667 5.459,27.792 -7.916,44.834c-15.958,19.876 -25.3,44.258 -26.709,69.708c-0.46,4.879 -2.043,9.585 -4.625,13.75l-44.708,-83.333l83.958,-44.959Z" style="fill:#f9ead4;fill-rule:nonzero;"/></g><g id="Path_5386-5"><path id="Path_5386-6" d="M520.542,717.458c10.541,15.084 20.833,19.084 42.416,16.417c25.265,-3.343 50.954,1.29 73.459,13.25c4.405,2.16 9.26,3.246 14.166,3.167l-48,-81.292l-82.041,48.458Z" style="fill:#f9ead4;fill-rule:nonzero;"/></g><g id="Path_5386-7"><path id="Path_5386-8" d="M732.167,701.917c-10.584,-15.084 -20.834,-19.084 -42.417,-16.667c-25.278,3.341 -50.98,-1.292 -73.5,-13.25c-4.402,-2.169 -9.26,-3.255 -14.167,-3.167l47.917,81.5l82.167,-48.416Z" style="fill:#f9ead4;fill-rule:nonzero;"/></g><path d="M389.247,62.542l213.245,555.813l150.911,-84.887l-364.156,-470.926Z" style="fill:#f9ead4;fill-rule:nonzero;"/><path d="M757.083,716.5l-5.904,-189.567l-152.953,85.885l158.857,103.682Z" style="fill:#f9ead4;fill-rule:nonzero;"/><path d="M743.791,660.068l-27.942,15.597l73.232,131.195l27.942,-15.597l-73.232,-131.195Z" style="fill:#f9ead4;"/><circle cx="800.833" cy="794.875" r="24.958" style="fill:#f9ead4;"/><g id="Path_5386-9"><path id="Path_5386-10" d="M191.125,690.75c7.417,-16.667 5.458,-27.75 -7.917,-44.792c-15.95,-19.88 -25.291,-44.259 -26.708,-69.708c-0.458,-4.879 -2.042,-9.586 -4.625,-13.75l-44.708,83.333l83.958,44.917Z" style="fill:#f9ead4;fill-rule:nonzero;"/></g><g id="Path_5386-11"><path id="Path_5386-12" d="M68.125,517.25c-7.417,16.667 -5.458,27.75 7.917,44.792c15.95,19.88 25.291,44.259 26.708,69.708c0.46,4.892 2.042,9.612 4.625,13.792l44.708,-83.042l-83.958,-45.25Z" style="fill:#f9ead4;fill-rule:nonzero;"/></g><g id="Path_5386-13"><path id="Path_5386-14" d="M426.417,722.458c-10.584,15.084 -20.834,19.084 -42.417,16.667c-25.261,-3.382 -50.958,1.239 -73.458,13.208c-4.409,2.154 -9.26,3.253 -14.167,3.209l48,-81.334l82.042,48.25Z" style="fill:#f9ead4;fill-rule:nonzero;"/></g><g id="Path_5386-15"><path id="Path_5386-16" d="M214.792,706.917c10.583,-15.084 20.833,-19.084 42.416,-16.459c25.279,3.341 50.98,-1.292 73.5,-13.25c4.416,-2.131 9.264,-3.214 14.167,-3.166l-48,81.333l-82.083,-48.458Z" style="fill:#f9ead4;fill-rule:nonzero;"/></g><path d="M557.208,67.542l-211.958,552.458l-150,-84.375l361.958,-468.083Z" style="fill:#f9ead4;fill-rule:nonzero;"/><path d="M189.875,721.5l5.873,-188.569l152.148,85.433l-158.021,103.136Z" style="fill:#f9ead4;fill-rule:nonzero;"/><path d="M130.027,796.3l27.942,15.597l73.232,-131.195l-27.942,-15.597l-73.232,131.195Z" style="fill:#f9ead4;"/><circle cx="146.125" cy="799.875" r="24.958" style="fill:#f9ead4;"/><path d="M387,638c-9.623,0 -17.542,7.919 -17.542,17.542c0,9.623 7.919,17.541 17.542,17.541c9.623,0 17.542,-7.918 17.542,-17.541c-0,-9.623 -7.919,-17.542 -17.542,-17.542Zm1.042,12.958c-4.279,1.801 -7.882,4.907 -10.292,8.875c-0.478,0.749 -1.138,1.365 -1.917,1.792l0,-17.125l17.334,0c-0.085,3.043 -2.181,5.685 -5.125,6.458Z" style="fill:#f9ead4;fill-rule:nonzero;"/><path d="M457.667,640.083c-9.623,0 -17.542,7.919 -17.542,17.542c0,9.623 7.919,17.542 17.542,17.542c9.623,-0 17.541,-7.919 17.541,-17.542c0,-0.014 0,-0.028 0,-0.042c-0.022,-9.607 -7.934,-17.5 -17.541,-17.5Zm2.916,12.917c-4.259,1.811 -7.856,4.897 -10.291,8.833c-0.499,0.743 -1.153,1.369 -1.917,1.834l0,-17.125l17.292,-0c-0.25,3.458 -1.5,4.875 -5.084,6.458Z" style="fill:#f9ead4;fill-rule:nonzero;"/><path d="M144.958,943.125c-0.038,-1.62 -0.785,-3.144 -2.041,-4.167c-1.539,-1.02 -3.366,-1.516 -5.209,-1.416c-1.247,-0.031 -2.49,0.167 -3.666,0.583c-0.887,0.301 -1.668,0.851 -2.25,1.583c-0.471,0.674 -0.732,1.471 -0.75,2.292c-0.041,0.652 0.103,1.302 0.416,1.875c0.361,0.583 0.844,1.081 1.417,1.458c0.69,0.437 1.432,0.787 2.208,1.042c0.951,0.349 1.926,0.628 2.917,0.833l4.167,0.917c2.146,0.421 4.231,1.107 6.208,2.042c1.68,0.741 3.217,1.771 4.542,3.041c1.233,1.16 2.187,2.585 2.791,4.167c1.633,4.237 1.153,9.007 -1.291,12.833c-1.682,2.204 -3.97,3.869 -6.584,4.792c-6.618,2.331 -13.839,2.331 -20.458,0c-2.796,-1.052 -5.198,-2.945 -6.875,-5.417c-1.72,-2.743 -2.603,-5.929 -2.542,-9.166l11.209,-0c0.038,1.365 0.456,2.693 1.208,3.833c0.72,1.085 1.751,1.928 2.958,2.417c2.7,0.93 5.634,0.93 8.334,-0c0.978,-0.342 1.844,-0.948 2.5,-1.75c0.579,-0.722 0.902,-1.617 0.916,-2.542c-0.008,-0.836 -0.302,-1.645 -0.833,-2.292c-0.693,-0.742 -1.549,-1.312 -2.5,-1.666c-1.351,-0.546 -2.744,-0.978 -4.167,-1.292l-4.958,-1.167c-3.571,-0.684 -6.911,-2.261 -9.708,-4.583c-2.386,-2.178 -3.672,-5.316 -3.5,-8.542c-0.094,-2.756 0.726,-5.467 2.333,-7.708c1.698,-2.282 3.989,-4.055 6.625,-5.125c3.026,-1.295 6.292,-1.934 9.583,-1.875c3.293,-0.076 6.563,0.564 9.584,1.875c2.538,1.121 4.716,2.924 6.291,5.208c1.515,2.315 2.312,5.026 2.292,7.792l-11.167,0.125Z" style="fill:#f9ead4;fill-rule:nonzero;"/><path d="M162.5,976.292l0,-47.375l33,-0l0,9.291l-21.708,0l-0,9.709l19.916,-0l0,9.333l-19.916,0l-0,9.708l21.583,0l0,9.334l-32.875,-0Z" style="fill:#f9ead4;fill-rule:nonzero;"/><path d="M245.542,946.083l-11.542,0c-0.143,-1.114 -0.467,-2.198 -0.958,-3.208c-0.947,-1.964 -2.644,-3.466 -4.709,-4.167c-1.141,-0.381 -2.339,-0.564 -3.541,-0.541c-2.1,-0.048 -4.166,0.548 -5.917,1.708c-1.737,1.204 -3.073,2.903 -3.833,4.875c-0.942,2.458 -1.394,5.077 -1.334,7.708c-0.083,2.705 0.385,5.399 1.375,7.917c0.75,1.944 2.072,3.615 3.792,4.792c1.765,1.082 3.805,1.632 5.875,1.583c1.155,0.006 2.304,-0.148 3.417,-0.458c1.014,-0.305 1.962,-0.8 2.791,-1.459c0.792,-0.633 1.456,-1.411 1.959,-2.291c0.527,-0.947 0.893,-1.975 1.083,-3.042l11.542,0c-0.216,2.148 -0.823,4.238 -1.792,6.167c-1.062,2.084 -2.471,3.972 -4.167,5.583c-1.85,1.79 -4.029,3.205 -6.416,4.167c-2.777,1.007 -5.714,1.501 -8.667,1.458c-4.013,0.062 -7.975,-0.914 -11.5,-2.833c-3.423,-1.936 -6.205,-4.834 -8,-8.334c-2.076,-4.1 -3.093,-8.656 -2.958,-13.25c-0.142,-4.599 0.89,-9.16 3,-13.25c1.81,-3.502 4.606,-6.399 8.041,-8.333c3.501,-1.906 7.432,-2.881 11.417,-2.833c2.7,-0.018 5.385,0.39 7.958,1.208c2.334,0.746 4.51,1.919 6.417,3.458c1.875,1.536 3.42,3.435 4.542,5.584c1.195,2.439 1.916,5.083 2.125,7.791Z" style="fill:#f9ead4;fill-rule:nonzero;"/><path d="M280.708,928.917l11.417,-0l0,30.541c0.231,6.552 -3.556,12.62 -9.542,15.292c-6.662,2.786 -14.171,2.786 -20.833,0c-5.956,-2.708 -9.727,-8.752 -9.542,-15.292l0,-30.541l11.459,-0l-0,29.416c-0.018,1.527 0.355,3.033 1.083,4.375c0.692,1.281 1.751,2.327 3.042,3c2.823,1.446 6.176,1.446 9,0c1.27,-0.686 2.313,-1.729 3,-3c0.756,-1.331 1.131,-2.845 1.083,-4.375l-0.167,-29.416Z" style="fill:#f9ead4;fill-rule:nonzero;"/><path d="M299.292,976.292l-0,-47.375l19.583,-0c3.177,-0.087 6.33,0.57 9.208,1.916c2.495,1.171 4.575,3.076 5.959,5.459c1.459,2.53 2.194,5.413 2.125,8.333c0.072,2.926 -0.679,5.814 -2.167,8.333c-1.42,2.38 -3.547,4.26 -6.083,5.375c-2.962,1.26 -6.158,1.871 -9.375,1.792l-12.5,0l-0,-9l10.25,0c1.416,0.007 2.823,-0.218 4.166,-0.667c1.076,-0.394 1.997,-1.125 2.625,-2.083c0.659,-1.09 0.978,-2.353 0.917,-3.625c0.056,-1.272 -0.263,-2.533 -0.917,-3.625c-0.615,-1.005 -1.557,-1.77 -2.666,-2.167c-1.326,-0.521 -2.742,-0.776 -4.167,-0.75l-5.5,0l-0,38.167l-11.458,-0.083Zm26.708,-21.667l11.792,21.667l-12.5,-0l-11.584,-21.667l12.292,0Z" style="fill:#f9ead4;fill-rule:nonzero;"/><rect x="342.417" y="928.917" width="11.458" height="47.375" style="fill:#f9ead4;fill-rule:nonzero;"/><path d="M359.5,938.208l0,-9.291l40.042,-0l-0,9.291l-14.375,0l-0,38.084l-11.292,-0l0,-38.084l-14.375,0Z" style="fill:#f9ead4;fill-rule:nonzero;"/><path d="M402.792,928.917l12.791,-0l10,19.791l0.417,0l10,-19.791l12.792,-0l-17.292,31.541l0,15.834l-11.375,-0l-0,-15.834l-17.333,-31.541Z" style="fill:#f9ead4;fill-rule:nonzero;"/><path d="M510.625,946.083l-11.583,0c-0.111,-1.115 -0.421,-2.202 -0.917,-3.208c-0.946,-1.964 -2.644,-3.466 -4.708,-4.167c-1.141,-0.381 -2.339,-0.564 -3.542,-0.541c-2.1,-0.048 -4.165,0.548 -5.917,1.708c-1.737,1.204 -3.073,2.903 -3.833,4.875c-0.941,2.458 -1.394,5.077 -1.333,7.708c-0.083,2.705 0.384,5.399 1.375,7.917c0.749,1.944 2.072,3.615 3.791,4.792c1.752,1.077 3.778,1.626 5.834,1.583c1.168,0.01 2.332,-0.145 3.458,-0.458c0.997,-0.316 1.929,-0.811 2.75,-1.459c0.815,-0.621 1.495,-1.4 2,-2.291c0.532,-0.941 0.885,-1.972 1.042,-3.042l11.583,0c-0.211,2.154 -0.833,4.247 -1.833,6.167c-1.044,2.095 -2.456,3.986 -4.167,5.583c-1.85,1.79 -4.029,3.205 -6.417,4.167c-2.776,1.007 -5.713,1.501 -8.666,1.458c-4.013,0.062 -7.975,-0.914 -11.5,-2.833c-3.445,-1.922 -6.244,-4.823 -8.042,-8.334c-3.917,-8.393 -3.917,-18.106 0,-26.5c1.837,-3.497 4.644,-6.39 8.083,-8.333c3.501,-1.906 7.432,-2.881 11.417,-2.833c2.7,-0.018 5.385,0.39 7.958,1.208c2.334,0.746 4.51,1.919 6.417,3.458c1.874,1.527 3.407,3.429 4.5,5.584c1.253,2.424 2.018,5.072 2.25,7.791Z" style="fill:#f9ead4;fill-rule:nonzero;"/><path d="M517.125,976.292l0,-47.375l11.458,-0l0,19l18.667,-0l0,-19l11.417,-0l-0,47.375l-11.417,-0l0,-19.042l-18.667,0l0,19.042l-11.458,-0Z" style="fill:#f9ead4;fill-rule:nonzero;"/><path d="M576.083,976.292l-12.291,-0l15.958,-47.375l15.25,-0l16,47.375l-12.292,-0l-11.208,-35.459l-0.375,0l-11.042,35.459Zm-1.625,-18.667l25.542,0l0,8.708l-25.708,0l0.166,-8.708Z" style="fill:#f9ead4;fill-rule:nonzero;"/><path d="M616.083,928.917l14.209,-0l12,29.166l0.583,0l12,-29.166l14.208,-0l0,47.375l-11.166,-0l-0,-29.167l-0.375,0l-11.375,28.792l-7.125,-0l-11.417,-28.959l-0.375,0l0,29.167l-11.167,0l0,-47.208Z" style="fill:#f9ead4;fill-rule:nonzero;"/><path d="M676.208,976.292l0,-47.375l19.625,-0c3.196,-0.095 6.365,0.622 9.209,2.083c2.505,1.293 4.577,3.292 5.958,5.75c1.461,2.605 2.195,5.556 2.125,8.542c0.077,3.005 -0.672,5.974 -2.167,8.583c-1.421,2.45 -3.539,4.422 -6.083,5.667c-2.919,1.414 -6.133,2.114 -9.375,2.041l-12.167,0l0,-9.041l9.959,-0c1.441,0.028 2.869,-0.287 4.166,-0.917c1.117,-0.536 2.036,-1.411 2.625,-2.5c0.638,-1.175 0.955,-2.497 0.917,-3.833c0.038,-1.323 -0.278,-2.633 -0.917,-3.792c-0.593,-1.101 -1.529,-1.979 -2.666,-2.5c-1.305,-0.603 -2.73,-0.902 -4.167,-0.875l-5.75,0l0,38.167l-11.292,-0Z" style="fill:#f9ead4;fill-rule:nonzero;"/><rect x="718.667" y="928.917" width="11.458" height="47.375" style="fill:#f9ead4;fill-rule:nonzero;"/><path d="M782,952.583c0.142,4.6 -0.891,9.161 -3,13.25c-1.896,3.538 -4.796,6.438 -8.333,8.334c-7.18,3.775 -15.779,3.775 -22.959,-0c-3.444,-1.95 -6.263,-4.841 -8.125,-8.334c-2.114,-4.073 -3.147,-8.621 -3,-13.208c-0.142,-4.6 0.891,-9.16 3,-13.25c1.841,-3.508 4.665,-6.405 8.125,-8.333c3.512,-1.915 7.459,-2.891 11.459,-2.834c4.012,-0.053 7.971,0.923 11.5,2.834c3.537,1.896 6.437,4.795 8.333,8.333c2.102,4.077 3.135,8.623 3,13.208Zm-11.708,0c0.079,-2.656 -0.359,-5.303 -1.292,-7.791c-1.434,-4.03 -5.351,-6.675 -9.625,-6.5c-2.07,-0.062 -4.109,0.52 -5.833,1.666c-1.719,1.186 -3.029,2.875 -3.75,4.834c-0.948,2.485 -1.401,5.132 -1.334,7.791c-0.062,2.673 0.391,5.332 1.334,7.834c1.491,4.001 5.334,6.669 9.604,6.669c4.27,-0 8.112,-2.668 9.604,-6.669c0.929,-2.504 1.367,-5.164 1.292,-7.834Z" style="fill:#f9ead4;fill-rule:nonzero;"/><path d="M829.167,928.917l-0,47.375l-9.709,-0l-18.833,-27.375l-0.625,-0l-0,27.375l-11.458,-0l-0,-47.375l9.833,-0l18.667,27.291l0.375,0l-0,-27.291l11.75,-0Z" style="fill:#f9ead4;fill-rule:nonzero;"/></svg>